<?xml version="1.0" encoding="utf-8"?><!-- Uploaded to: SVG Repo, www.svgrepo.com, Generator: SVG Repo Mixer Tools -->
<svg fill="#000000" width="800px" height="800px" viewBox="0 0 24 24" id="satellite-dish" data-name="Flat Line" xmlns="http://www.w3.org/2000/svg" class="icon flat-line"><path id="secondary" d="M11,3.31a1.06,1.06,0,0,0-1.59.11A7.33,7.33,0,0,0,19.58,13.64a1.06,1.06,0,0,0,.11-1.59Z" style="fill: rgb(44, 169, 188); stroke-width: 2;"></path><line id="primary-upstroke" x1="19.05" y1="4" x2="18.95" y2="4" style="fill: none; stroke: rgb(0, 0, 0); stroke-linecap: round; stroke-linejoin: round; stroke-width: 2.5;"></line><line id="primary" x1="6" y1="21" x2="9.4" y2="12.25" style="fill: none; stroke: rgb(0, 0, 0); stroke-linecap: round; stroke-linejoin: round; stroke-width: 2;"></line><line id="primary-2" data-name="primary" x1="13.58" y1="14.79" x2="16" y2="21" style="fill: none; stroke: rgb(0, 0, 0); stroke-linecap: round; stroke-linejoin: round; stroke-width: 2;"></line><path id="primary-3" data-name="primary" d="M15.32,7.68,19,4M4,21H18M11,3.31a1.06,1.06,0,0,0-1.59.11A7.33,7.33,0,0,0,19.58,13.64a1.06,1.06,0,0,0,.11-1.59Z" style="fill: none; stroke: rgb(0, 0, 0); stroke-linecap: round; stroke-linejoin: round; stroke-width: 2;"></path></svg>